<svg width="20" height="14" viewBox="0 0 20 14" fill="none" xmlns="http://www.w3.org/2000/svg">
<path d="M7.01 9.27054H1C0.45 9.27054 0 9.72054 0 10.2705C0 10.8205 0.45 11.2705 1 11.2705H7.01V13.0605C7.01 13.5105 7.55 13.7305 7.86 13.4105L10.64 10.6205C10.83 10.4205 10.83 10.1105 10.64 9.91054L7.86 7.12054C7.55 6.80054 7.01 7.03054 7.01 7.47054V9.27054ZM12.99 7.06054V5.27054H19C19.55 5.27054 20 4.82054 20 4.27054C20 3.72054 19.55 3.27054 19 3.27054H12.99V1.48054C12.99 1.03054 12.45 0.810538 12.14 1.13054L9.36 3.92054C9.17 4.12054 9.17 4.43054 9.36 4.63054L12.14 7.42054C12.2105 7.48964 12.2999 7.53633 12.3969 7.55472C12.4938 7.57311 12.5941 7.56238 12.685 7.52388C12.7759 7.48539 12.8534 7.42084 12.9076 7.33839C12.9619 7.25593 12.9906 7.15925 12.99 7.06054Z" fill="#818181"/>
</svg>
