<svg width="25" height="19" viewBox="0 0 25 19" fill="none" xmlns="http://www.w3.org/2000/svg">
<g opacity="0.8">
<path fill-rule="evenodd" clip-rule="evenodd" d="M0.498535 9.05388C0.498535 8.17143 1.21391 7.45605 2.09636 7.45605H7.15614C8.0386 7.45605 8.75397 8.17143 8.75397 9.05388C8.75397 9.93634 8.0386 10.6517 7.15614 10.6517H2.09636C1.21391 10.6517 0.498535 9.93634 0.498535 9.05388ZM10.6181 9.05388C10.6181 8.17143 11.3335 7.45605 12.2159 7.45605H22.3355C23.2179 7.45605 23.9333 8.17143 23.9333 9.05388C23.9333 9.93634 23.2179 10.6517 22.3355 10.6517H12.2159C11.3335 10.6517 10.6181 9.93634 10.6181 9.05388Z" fill="#4C4C4C"/>
<path fill-rule="evenodd" clip-rule="evenodd" d="M14.8142 0.467992C15.4382 -0.155997 16.4499 -0.155997 17.0739 0.467992L24.5304 7.92451C25.1544 8.5485 25.1544 9.56019 24.5304 10.1842L17.0739 17.6407C16.4499 18.2647 15.4382 18.2647 14.8142 17.6407C14.1902 17.0167 14.1902 16.005 14.8142 15.381L21.1409 9.05435L14.8142 2.72766C14.1902 2.10367 14.1902 1.09198 14.8142 0.467992Z" fill="#4C4C4C"/>
</g>
</svg>
