<svg width="26" height="21" viewBox="0 0 26 21" fill="none" xmlns="http://www.w3.org/2000/svg">
<path d="M13.6445 16.9238C13.5385 16.8344 13.4544 16.7281 13.397 16.6111C13.3396 16.4941 13.3101 16.3687 13.3101 16.242C13.3101 16.1154 13.3396 15.99 13.397 15.873C13.4544 15.756 13.5385 15.6497 13.6445 15.5603L18.5229 11.4307H4.59541C4.29388 11.4307 4.00469 11.3293 3.79148 11.1488C3.57826 10.9683 3.45848 10.7235 3.45848 10.4683C3.45848 10.213 3.57826 9.96821 3.79148 9.78771C4.00469 9.60722 4.29388 9.50582 4.59541 9.50582H18.5229L13.6445 5.37458C13.4309 5.19378 13.3109 4.94856 13.3109 4.69286C13.3109 4.43717 13.4309 4.19194 13.6445 4.01114C13.8581 3.83033 14.1477 3.72876 14.4498 3.72876C14.7519 3.72876 15.0415 3.83033 15.2551 4.01114L22.0767 9.78573C22.1827 9.87515 22.2668 9.98139 22.3242 10.0984C22.3816 10.2154 22.4111 10.3408 22.4111 10.4675C22.4111 10.5941 22.3816 10.7195 22.3242 10.8365C22.2668 10.9535 22.1827 11.0598 22.0767 11.1492L15.2551 16.9238C15.1495 17.0135 15.024 17.0847 14.8858 17.1333C14.7476 17.1818 14.5994 17.2068 14.4498 17.2068C14.3002 17.2068 14.152 17.1818 14.0138 17.1333C13.8756 17.0847 13.7501 17.0135 13.6445 16.9238Z" fill="#5E5E5E"/>
</svg>
