<svg width="22" height="20" viewBox="0 0 22 20" fill="none" xmlns="http://www.w3.org/2000/svg">
<path d="M15.5109 0.621094C13.743 0.621094 12.0462 1.44408 10.9387 2.74461C9.83122 1.44408 8.13444 0.621094 6.36653 0.621094C3.23713 0.621094 0.77832 3.07991 0.77832 6.2093C0.77832 10.0499 4.23285 13.1793 9.46545 17.9344L10.9387 19.2654L12.412 17.9242C17.6446 13.1793 21.0991 10.0499 21.0991 6.2093C21.0991 3.07991 18.6403 0.621094 15.5109 0.621094ZM11.0403 16.4205L10.9387 16.5221L10.8371 16.4205C6.00076 12.0414 2.8104 9.14565 2.8104 6.2093C2.8104 4.17723 4.33445 2.65317 6.36653 2.65317C7.93123 2.65317 9.45529 3.65905 9.99378 5.05102H11.8938C12.4221 3.65905 13.9462 2.65317 15.5109 2.65317C17.5429 2.65317 19.067 4.17723 19.067 6.2093C19.067 9.14565 15.8766 12.0414 11.0403 16.4205Z" fill="#818181"/>
</svg>
